<mxfile host="app.diagrams.net" modified="2022-09-18T12:17:17.178Z" agent="5.0 (Macintosh; Intel Mac OS X 10_15_7) AppleWebKit/605.1.15 (KHTML, like Gecko) Version/16.0 Safari/605.1.15" etag="fzixGutLnZDswZ08ET1e" version="20.3.0" type="github">
  <diagram id="EJDTuElmcnAi4WPFWQzJ" name="Page-1">
    <mxGraphModel dx="830" dy="852" grid="1" gridSize="10" guides="1" tooltips="1" connect="1" arrows="1" fold="1" page="1" pageScale="1" pageWidth="850" pageHeight="1100" math="0" shadow="0">
      <root>
        <mxCell id="0" />
        <mxCell id="1" parent="0" />
        <mxCell id="flRVxpR7cwWonaM8a4Yf-3" value="" style="edgeStyle=orthogonalEdgeStyle;rounded=0;orthogonalLoop=1;jettySize=auto;html=1;" edge="1" parent="1" source="flRVxpR7cwWonaM8a4Yf-1" target="flRVxpR7cwWonaM8a4Yf-2">
          <mxGeometry relative="1" as="geometry" />
        </mxCell>
        <mxCell id="flRVxpR7cwWonaM8a4Yf-5" value="" style="edgeStyle=orthogonalEdgeStyle;rounded=0;orthogonalLoop=1;jettySize=auto;html=1;" edge="1" parent="1" source="flRVxpR7cwWonaM8a4Yf-1" target="flRVxpR7cwWonaM8a4Yf-4">
          <mxGeometry relative="1" as="geometry" />
        </mxCell>
        <mxCell id="flRVxpR7cwWonaM8a4Yf-1" value="真空泵" style="rounded=0;whiteSpace=wrap;html=1;" vertex="1" parent="1">
          <mxGeometry x="380" y="80" width="120" height="60" as="geometry" />
        </mxCell>
        <mxCell id="flRVxpR7cwWonaM8a4Yf-7" value="" style="edgeStyle=orthogonalEdgeStyle;rounded=0;orthogonalLoop=1;jettySize=auto;html=1;" edge="1" parent="1" source="flRVxpR7cwWonaM8a4Yf-2" target="flRVxpR7cwWonaM8a4Yf-6">
          <mxGeometry relative="1" as="geometry" />
        </mxCell>
        <mxCell id="flRVxpR7cwWonaM8a4Yf-2" value="气体传输（真空泵）" style="rounded=0;whiteSpace=wrap;html=1;" vertex="1" parent="1">
          <mxGeometry x="270" y="200" width="120" height="60" as="geometry" />
        </mxCell>
        <mxCell id="flRVxpR7cwWonaM8a4Yf-4" value="气体粘合（真空泵）" style="rounded=0;whiteSpace=wrap;html=1;" vertex="1" parent="1">
          <mxGeometry x="480" y="200" width="120" height="60" as="geometry" />
        </mxCell>
        <mxCell id="flRVxpR7cwWonaM8a4Yf-6" value="往复容积式真空泵" style="rounded=0;whiteSpace=wrap;html=1;" vertex="1" parent="1">
          <mxGeometry x="130" y="330" width="120" height="60" as="geometry" />
        </mxCell>
      </root>
    </mxGraphModel>
  </diagram>
</mxfile>
